<svg width="50" height="50" viewBox="0 0 50 50" fill="none" xmlns="http://www.w3.org/2000/svg">
<path d="M50 25C50 38.8071 38.8071 50 25 50C11.1929 50 0 38.8071 0 25C0 11.1929 11.1929 0 25 0C38.8071 0 50 11.1929 50 25ZM7.66876 25C7.66876 34.5718 15.4282 42.3312 25 42.3312C34.5718 42.3312 42.3312 34.5718 42.3312 25C42.3312 15.4282 34.5718 7.66876 25 7.66876C15.4282 7.66876 7.66876 15.4282 7.66876 25Z" fill="url(#paint0_linear_0_94)"/>
<path d="M50 25C50 20.0555 48.5338 15.222 45.7867 11.1107C43.0397 6.99952 39.1352 3.7952 34.5671 1.90301C29.9989 0.0108208 24.9723 -0.484263 20.1227 0.480368C15.2732 1.445 10.8186 3.82602 7.32233 7.32233C3.82602 10.8186 1.445 15.2732 0.480368 20.1227C-0.484263 24.9723 0.0108209 29.9989 1.90301 34.5671C3.7952 39.1352 6.99952 43.0397 11.1107 45.7867C15.222 48.5338 20.0555 50 25 50V30.4285C23.9263 30.4285 22.8768 30.1101 21.9841 29.5136C21.0914 28.9171 20.3956 28.0693 19.9847 27.0774C19.5739 26.0855 19.4664 24.994 19.6758 23.941C19.8853 22.8879 20.4023 21.9207 21.1615 21.1615C21.9207 20.4023 22.8879 19.8853 23.941 19.6758C24.994 19.4664 26.0855 19.5739 27.0774 19.9847C28.0693 20.3956 28.9171 21.0914 29.5136 21.9841C30.1101 22.8768 30.4285 23.9263 30.4285 25H50Z" fill="#D9D9D9"/>
<path d="M50 25C50 20.0555 48.5338 15.222 45.7867 11.1107C43.0397 6.99952 39.1352 3.7952 34.5671 1.90301C29.9989 0.0108208 24.9723 -0.484263 20.1227 0.480368C15.2732 1.445 10.8186 3.82602 7.32233 7.32233C3.82602 10.8186 1.445 15.2732 0.480368 20.1227C-0.484263 24.9723 0.0108209 29.9989 1.90301 34.5671C3.7952 39.1352 6.99952 43.0397 11.1107 45.7867C15.222 48.5338 20.0555 50 25 50V30.4285C23.9263 30.4285 22.8768 30.1101 21.9841 29.5136C21.0914 28.9171 20.3956 28.0693 19.9847 27.0774C19.5739 26.0855 19.4664 24.994 19.6758 23.941C19.8853 22.8879 20.4023 21.9207 21.1615 21.1615C21.9207 20.4023 22.8879 19.8853 23.941 19.6758C24.994 19.4664 26.0855 19.5739 27.0774 19.9847C28.0693 20.3956 28.9171 21.0914 29.5136 21.9841C30.1101 22.8768 30.4285 23.9263 30.4285 25H50Z" fill="url(#paint1_linear_0_94)"/>
<defs>
<linearGradient id="paint0_linear_0_94" x1="46" y1="21" x2="25" y2="50" gradientUnits="userSpaceOnUse">
<stop stop-color="#FF6EB0"/>
<stop offset="1" stop-color="#1E020E"/>
</linearGradient>
<linearGradient id="paint1_linear_0_94" x1="-9.31323e-08" y1="25" x2="50" y2="25" gradientUnits="userSpaceOnUse">
<stop stop-color="#FB8748"/>
<stop offset="0.54" stop-color="#E13047"/>
<stop offset="1" stop-color="#A73882"/>
</linearGradient>
</defs>
</svg>
