<svg width="277" height="110" viewBox="0 0 277 110" fill="none" xmlns="http://www.w3.org/2000/svg">
<g clip-path="url(#clip0_0_113)">
<path d="M24.5 110C38.031 110 49 99.031 49 85.5C49 71.969 38.031 61 24.5 61C10.969 61 0 71.969 0 85.5C0 99.031 10.969 110 24.5 110Z" fill="#7543E3"/>
<path fill-rule="evenodd" clip-rule="evenodd" d="M18.2155 80.2325C18.1604 80.6995 18.1083 81.1911 18.0746 81.6826C17.2539 82.2737 16.4867 82.877 15.7747 83.4803C15.4072 83.7927 15.0519 84.105 14.7181 84.4297C12.0828 81.6489 10.9589 79.1484 11.6832 77.8652C12.3202 76.7259 14.4578 76.4028 17.4591 77.0169C17.5785 76.4809 17.6964 75.968 17.8373 75.4764C14.199 74.7169 11.4244 75.2192 10.377 77.0842C10.0954 77.5846 9.9502 78.1501 9.95593 78.7242V78.7809C9.97736 81.4253 12.4932 84.9641 16.6934 88.3022C17.1237 88.6483 17.5892 88.9943 18.0639 89.3404C18.1785 90.8059 18.3841 92.2629 18.6795 93.7029C15.0412 94.6753 12.3952 94.4303 11.6725 93.1455C11.0355 92.0078 11.8348 89.9207 13.8422 87.5427L12.7949 86.4034C10.3112 89.3067 9.31893 92.0629 10.3663 93.9372C11.1013 95.2556 12.6877 95.8819 14.8253 95.8819C16.9736 95.8819 19.6717 95.2449 22.6301 94.0061C23.2378 93.7502 23.8388 93.4786 24.4324 93.1915L24.4997 93.1562C25.4399 93.6018 26.3679 94.0046 27.2866 94.3506C27.6847 94.5068 28.0844 94.6416 28.4733 94.7748C27.4688 98.5248 25.9361 100.779 24.4997 100.779C23.2257 100.779 21.8767 99.0163 20.8936 96.0013C20.4103 96.1767 19.9205 96.3335 19.4252 96.4714C20.6119 100.111 22.4142 102.344 24.4997 102.344C27.5331 102.344 29.951 97.6336 30.784 90.7675C30.8376 90.3005 30.8805 89.8089 30.9233 89.3281C31.7762 88.7156 32.5771 88.0786 33.3213 87.4309C33.6446 87.1523 33.9612 86.8658 34.2706 86.5719C36.9166 89.3404 38.0375 91.8516 37.3148 93.1348C36.7222 94.196 34.7668 94.5528 32.0901 94.0949L31.5496 93.9938C31.4381 94.5036 31.3125 95.0101 31.1729 95.5128C31.3996 95.5572 31.6262 95.6017 31.8421 95.6353C32.6225 95.7757 33.4134 95.8505 34.2063 95.8589C36.3761 95.8589 37.9196 95.2005 38.6316 93.928C39.5826 92.2314 38.892 89.763 36.6778 86.996C35.5339 85.5567 34.044 84.105 32.3168 82.7208C31.8727 82.364 31.4103 82.0164 30.9463 81.6719C30.8655 80.6317 30.7357 79.596 30.5574 78.568C30.4808 78.1332 30.4058 77.709 30.32 77.2971C30.9341 77.1287 31.5297 76.9939 32.1009 76.8944C34.779 76.435 36.7329 76.7933 37.327 77.8545C37.9518 78.9707 37.1861 81.0134 35.243 83.3455C35.6197 83.7253 35.9657 84.105 36.2904 84.4725C36.4259 84.3181 36.5552 84.1582 36.6778 83.9932C38.8812 81.2247 39.5826 78.7579 38.6332 77.0613C37.6838 75.3647 35.2751 74.7506 31.8528 75.3417C30.2649 75.6097 28.5269 76.1349 26.7231 76.85C26.6481 76.8821 26.5838 76.9051 26.5087 76.9388C25.9039 77.1838 25.2991 77.4517 24.6942 77.7427C24.6406 77.7641 24.587 77.7978 24.5319 77.8193C23.6173 77.3751 22.6844 76.9695 21.7358 76.6034C21.3377 76.4472 20.9365 76.3125 20.5491 76.1793C21.5506 72.44 23.0849 70.1875 24.5196 70.1875C25.7936 70.1875 27.1534 71.9622 28.1365 74.9757C28.6341 74.8073 29.1195 74.6526 29.6065 74.5072C28.383 70.8995 26.5822 68.6562 24.486 68.6562C21.4633 68.6562 19.0362 73.3664 18.2155 80.2325ZM27.867 79.6629C27.8455 79.6399 27.8134 79.6292 27.7904 79.6169C27.2851 79.3168 26.7645 79.0259 26.2699 78.7472C26.3106 78.7237 26.3537 78.7047 26.3985 78.6905C27.0141 78.4226 27.6296 78.1776 28.2237 77.9662C28.4289 77.8866 28.6341 77.8208 28.8286 77.7534C28.9143 78.1668 28.9894 78.5803 29.0659 79.0152C29.1517 79.5174 29.216 80.0304 29.2803 80.5556C28.8133 80.2516 28.3421 79.954 27.867 79.6629ZM19.9106 79.0703C19.9856 78.6124 20.0606 78.1776 20.1586 77.7534C21.0292 78.0472 21.8864 78.3788 22.7281 78.7472C22.2197 79.0259 21.7021 79.3168 21.1953 79.6169C21.1708 79.6282 21.1485 79.6437 21.1295 79.6629C20.6441 79.9538 20.1694 80.2539 19.7054 80.5556C19.7697 80.0411 19.834 79.5511 19.9106 79.0703ZM21.9502 90.0539C21.5883 89.8437 21.2319 89.6242 20.8814 89.3955C20.4171 89.1017 19.9601 88.7963 19.5109 88.4798C19.4446 87.4915 19.4119 86.5012 19.4129 85.5107C19.4129 84.9748 19.4236 84.4511 19.4451 83.9366C19.4665 83.4573 19.4895 82.9995 19.5216 82.5432C20.2873 82.0072 21.0988 81.482 21.9502 80.9675C22.2748 80.7684 22.6086 80.577 22.9333 80.3994C23.4508 80.1085 23.9699 79.8405 24.4875 79.5725C25.3504 80.0056 26.1968 80.4709 27.0248 80.9675C27.3923 81.1911 27.7475 81.4039 28.0936 81.6259C28.5683 81.9276 29.0215 82.2292 29.4656 82.5416C29.5651 84.0539 29.5866 85.5703 29.5299 87.0848C29.5085 87.5534 29.487 88.022 29.4533 88.4798C28.6877 89.0157 27.8777 89.541 27.0248 90.0539C26.7981 90.1887 26.5822 90.3219 26.3556 90.4444C25.7829 90.7798 25.2118 91.0814 24.6498 91.3708C24.5962 91.3938 24.5426 91.4275 24.4875 91.4489C23.6255 91.0146 22.7792 90.5483 21.9502 90.0539ZM16.6169 86.2258C16.3366 85.9915 16.0779 85.745 15.8176 85.5107C16.1743 85.1876 16.5418 84.8523 16.9308 84.5292C17.2539 84.2612 17.5892 83.9825 17.9445 83.7146C17.923 84.1602 17.9138 84.618 17.9138 85.0758V85.5107C17.9138 86.1248 17.923 86.7173 17.9445 87.3084C17.4887 86.964 17.0459 86.6029 16.6169 86.2258ZM31.0734 85.9578V85.5107C31.0734 84.8982 31.0627 84.3056 31.0412 83.7146C31.7781 84.2757 32.4845 84.8758 33.1574 85.5122C32.8772 85.768 32.5847 86.0359 32.2831 86.2932C32.2402 86.3253 32.1958 86.3698 32.1529 86.4034C31.7977 86.7051 31.4179 87.0175 31.0305 87.3191C31.052 86.8735 31.0734 86.4172 31.0734 85.9578ZM19.9213 92.0063C19.8372 91.4951 19.7653 90.982 19.7054 90.4674C20.1694 90.769 20.6333 91.0584 21.1187 91.3494C21.1402 91.3708 21.1739 91.3831 21.1953 91.3938C21.7021 91.6954 22.209 91.9848 22.7266 92.2635C22.7266 92.2635 22.7174 92.2635 22.7174 92.2758C22.1922 92.5017 21.6628 92.7177 21.1295 92.9235C21.0544 92.9557 20.9794 92.9786 20.9028 93.0123C20.6548 93.1011 20.4067 93.1915 20.1586 93.2696C20.0707 92.8507 19.9916 92.4285 19.9213 92.0063ZM27.6189 92.8332C27.1585 92.6551 26.7011 92.4693 26.2469 92.2758L26.4414 92.1747C26.8854 91.9297 27.3264 91.6725 27.7812 91.4152C28.2806 91.1072 28.7772 90.7948 29.2711 90.4781C29.2053 90.9803 29.141 91.4826 29.0659 91.9512C28.9894 92.4105 28.9036 92.8454 28.8163 93.2803C28.4289 93.1348 28.0293 92.9893 27.6189 92.8332ZM22.5443 85.5107C22.5443 84.4067 23.4187 83.5017 24.489 83.5017C25.5563 83.5017 26.4306 84.4052 26.4306 85.5107C26.4306 86.6163 25.5578 87.5197 24.4875 87.5197C23.4187 87.5197 22.5443 86.6163 22.5443 85.5107Z" fill="white"/>
</g>
<g clip-path="url(#clip1_0_113)">
<path d="M100.5 110C114.031 110 125 99.031 125 85.5C125 71.969 114.031 61 100.5 61C86.969 61 76 71.969 76 85.5C76 99.031 86.969 110 100.5 110Z" fill="#23292F"/>
<path d="M111.326 73.25H115.751L106.541 82.3717C104.93 83.9582 102.761 84.8476 100.5 84.8476C98.2394 84.8476 96.0695 83.9582 94.4592 82.3717L85.2411 73.25H89.6741L96.6719 80.1758C97.6909 81.1817 99.0651 81.7456 100.497 81.7456C101.929 81.7456 103.303 81.1817 104.322 80.1758L111.326 73.25ZM89.6205 98.6121H85.1875L94.4592 89.4353C96.0695 87.8487 98.2394 86.9594 100.5 86.9594C102.761 86.9594 104.93 87.8487 106.541 89.4353L115.812 98.6106H111.38L104.328 91.625C103.309 90.6192 101.935 90.0552 100.503 90.0552C99.0712 90.0552 97.697 90.6192 96.678 91.625L89.6189 98.6121H89.6205Z" fill="white"/>
</g>
<g clip-path="url(#clip2_0_113)">
<path d="M176.5 110C190.031 110 201 99.031 201 85.5C201 71.969 190.031 61 176.5 61C162.969 61 152 71.969 152 85.5C152 99.031 162.969 110 176.5 110Z" fill="#D21E2B"/>
<path d="M176.714 69.9655V65.5938L192.985 74.9834L189.223 77.17L176.714 69.9655ZM189.473 92.0415V77.6355L193.272 75.4489V94.2281L189.473 92.0415ZM176.714 99.7115L189.223 92.5085L192.985 94.6936L176.714 104.083V99.7115ZM159.907 94.6936L163.705 92.5085L176.177 99.7115V104.083L159.907 94.6936ZM159.656 75.4489L163.419 77.6355V92.0415L159.656 94.2281V75.4489ZM159.907 74.9834L176.177 65.5938V69.9655L163.706 77.17L159.907 74.9834ZM176.482 70.3774L163.939 77.5834V92.0614L176.482 99.3012L188.989 92.0614V77.5834L176.482 70.3774ZM186.553 83.3164L186.015 84.2474L182.432 82.2415L177.844 84.8201L182.431 87.4003L186.014 85.3943L186.553 86.3253L183.542 88.0097L186.553 89.6941L186.015 90.6266L183.005 88.9422V92.311H181.893V88.3328L177.307 85.7527V90.913L180.855 92.8837L180.317 93.7978L177.307 92.1135V95.4822H176.194V92.1135L173.183 93.7978L172.611 92.8668L176.194 90.8946V85.7527L171.606 88.3328V92.311H170.459V88.9422L167.486 90.6266L166.911 89.6941L169.922 88.0097L166.911 86.3253L167.486 85.3943L171.033 87.4003L175.656 84.8201L171.032 82.24L167.486 84.2459L166.911 83.3149L169.922 81.6305L166.911 79.9462L167.486 79.0152L170.459 80.6995V77.3124H171.608V81.2906L176.194 83.8708V78.7288L172.646 76.7566L173.183 75.8256L176.194 77.5099V74.1412H177.305V77.5099L180.316 75.8256L180.852 76.7566L177.305 78.7288V83.8891L181.892 81.309V77.3124H183.003V80.6812L186.014 78.9968L186.55 79.9293L183.541 81.6137L186.551 83.3149L186.553 83.3164Z" fill="white"/>
</g>
<g clip-path="url(#clip3_0_113)">
<path d="M252.5 110C266.031 110 277 99.031 277 85.5C277 71.969 266.031 61 252.5 61C238.969 61 228 71.969 228 85.5C228 99.031 238.969 110 252.5 110Z" fill="#A6E000"/>
<path fill-rule="evenodd" clip-rule="evenodd" d="M255.853 100.812C253.618 100.812 251.989 100.286 250.966 99.2353C249.944 98.1818 249.433 97.0472 249.433 95.8313C249.433 95.3873 249.522 95.0121 249.701 94.7089C249.876 94.408 250.128 94.1595 250.431 93.9893C250.741 93.8147 251.12 93.7259 251.572 93.7259C252.024 93.7259 252.405 93.8147 252.714 93.9893C253.024 94.1653 253.266 94.4042 253.445 94.7089C253.624 95.0121 253.713 95.3873 253.713 95.8313C253.713 96.3688 253.583 96.8068 253.321 97.1467C253.091 97.4629 252.766 97.6965 252.393 97.8128C252.702 98.2339 253.189 98.5325 253.855 98.707C254.521 98.8954 255.187 98.9888 255.852 98.9888C256.745 98.9992 257.621 98.7427 258.368 98.2522C259.117 97.7607 259.669 97.0349 260.025 96.0779C260.381 95.1178 260.56 94.0306 260.56 92.8148C260.56 91.4933 260.364 90.3648 259.972 89.4292C259.591 88.4813 259.026 87.78 258.277 87.3237C257.549 86.8737 256.708 86.6371 255.852 86.6408C255.282 86.6408 254.569 86.8735 253.713 87.3421L252.143 88.1138V87.3421L259.205 78.0811H249.433V87.6927C249.433 88.489 249.611 89.1428 249.969 89.6573C250.324 90.1718 250.872 90.4291 251.607 90.4291C252.178 90.4291 252.725 90.2423 253.249 89.8671C253.774 89.4906 254.232 89.0283 254.604 88.4997C254.641 88.4078 254.703 88.3281 254.783 88.27C254.848 88.2152 254.93 88.1849 255.014 88.1843C255.146 88.1843 255.299 88.2486 255.478 88.3757C255.641 88.5527 255.73 88.7847 255.728 89.0249C255.707 89.1903 255.678 89.3544 255.639 89.5165C255.235 90.4046 254.674 91.0829 253.962 91.5515C253.265 92.0141 252.446 92.2583 251.609 92.2528C249.493 92.2528 248.03 91.844 247.222 91.0247C246.413 90.2071 246.009 89.0954 246.009 87.6927V78.0811H241.016V76.2911H246.008V72.2241L244.868 71.1001V70.1875H248.185L249.433 70.8184V76.2911L262.343 76.2558L263.629 77.5191L255.71 85.3071C256.189 85.1185 256.694 84.9999 257.207 84.9549C258.065 84.9549 259.026 85.2244 260.097 85.7634C261.179 86.2886 262.011 87.0144 262.592 87.9377C263.176 88.8504 263.551 89.7278 263.716 90.57C263.883 91.307 263.973 92.0593 263.984 92.8148C263.996 94.2625 263.666 95.6925 263.021 96.989C262.402 98.2525 261.37 99.2669 260.097 99.8647C258.773 100.5 257.322 100.824 255.853 100.812Z" fill="white"/>
</g>
<path d="M5.145 14.15C2.295 14.15 0.57 12.11 0.57 8.975C0.57 5.84 2.295 3.8 5.145 3.8C7.605 3.8 9.27 5.255 9.27 7.535V7.655H8.13V7.535C8.13 5.765 7.185 4.835 5.085 4.835C2.73 4.835 1.695 6.185 1.695 8.975C1.695 11.765 2.73 13.115 5.085 13.115C7.185 13.115 8.13 12.185 8.13 10.415V10.295H9.27V10.415C9.27 12.695 7.605 14.15 5.145 14.15ZM14.7659 14H13.7009V3.95H17.7959C19.8659 3.95 21.2759 5.015 21.2759 6.875C21.2759 8.585 20.0909 9.62 18.2909 9.665V9.755C18.9209 9.95 19.3409 10.37 19.6859 10.985L21.4109 14H20.1659L18.5459 11.18C18.0509 10.31 17.5259 9.905 16.2209 9.905H14.7659V14ZM14.7659 4.925V8.99H17.9609C19.5059 8.99 20.1959 8.375 20.1959 6.95C20.1959 5.57 19.5059 4.925 17.9609 4.925H14.7659ZM29.1458 14H28.0658V10.16L24.1808 3.95H25.4408L27.6458 7.505L28.5908 9.11H28.6658L29.5958 7.505L31.7858 3.95H33.0308L29.1458 10.19V14ZM37.6555 14H36.5905V3.95H40.5205C42.6205 3.95 44.1655 5.165 44.1655 7.25C44.1655 9.365 42.6205 10.565 40.5205 10.565H37.6555V14ZM40.6855 4.925H37.6555V9.59H40.6855C42.3205 9.59 43.0855 8.9 43.0855 7.25C43.0855 5.615 42.3205 4.925 40.6855 4.925ZM52.147 14H51.082V4.925H47.527V3.95H55.717V4.925H52.147V14ZM63.3289 14.15C60.5689 14.15 58.7389 12.11 58.7389 8.975C58.7389 5.84 60.5689 3.8 63.3289 3.8C66.0739 3.8 67.9039 5.84 67.9039 8.975C67.9039 12.11 66.0739 14.15 63.3289 14.15ZM63.3289 13.115C65.6839 13.115 66.7789 11.765 66.7789 8.975C66.7789 6.185 65.6839 4.835 63.3289 4.835C60.9739 4.835 59.8639 6.185 59.8639 8.975C59.8639 11.765 60.9739 13.115 63.3289 13.115ZM76.6118 14.15C73.7618 14.15 72.0368 12.11 72.0368 8.975C72.0368 5.84 73.7618 3.8 76.6118 3.8C79.0718 3.8 80.7368 5.255 80.7368 7.535V7.655H79.5968V7.535C79.5968 5.765 78.6518 4.835 76.5518 4.835C74.1968 4.835 73.1618 6.185 73.1618 8.975C73.1618 11.765 74.1968 13.115 76.5518 13.115C78.6518 13.115 79.5968 12.185 79.5968 10.415V10.295H80.7368V10.415C80.7368 12.695 79.0718 14.15 76.6118 14.15ZM89.3077 14.15C86.7427 14.15 85.1377 12.665 85.1377 10.04V3.95H86.2177V10.04C86.2177 12.185 87.1027 13.115 89.3077 13.115C91.4827 13.115 92.3827 12.185 92.3827 10.04V3.95H93.4627V10.04C93.4627 12.665 91.8427 14.15 89.3077 14.15ZM99.428 14H98.363V3.95H102.458C104.528 3.95 105.938 5.015 105.938 6.875C105.938 8.585 104.753 9.62 102.953 9.665V9.755C103.583 9.95 104.003 10.37 104.348 10.985L106.073 14H104.828L103.208 11.18C102.713 10.31 102.188 9.905 100.883 9.905H99.428V14ZM99.428 4.925V8.99H102.623C104.168 8.99 104.858 8.375 104.858 6.95C104.858 5.57 104.168 4.925 102.623 4.925H99.428ZM111.29 14H110.225V3.95H114.32C116.39 3.95 117.8 5.015 117.8 6.875C117.8 8.585 116.615 9.62 114.815 9.665V9.755C115.445 9.95 115.865 10.37 116.21 10.985L117.935 14H116.69L115.07 11.18C114.575 10.31 114.05 9.905 112.745 9.905H111.29V14ZM111.29 4.925V8.99H114.485C116.03 8.99 116.72 8.375 116.72 6.95C116.72 5.57 116.03 4.925 114.485 4.925H111.29ZM128.853 14H122.088V3.95H128.853V4.925H123.153V8.45H128.628V9.44H123.153V13.025H128.853V14ZM134.297 14H133.232V3.95H134.387L138.902 10.64L139.967 12.215H140.057V3.95H141.137V14H139.967L135.422 7.31L134.372 5.765H134.297V14ZM150.173 14.15C147.323 14.15 145.598 12.11 145.598 8.975C145.598 5.84 147.323 3.8 150.173 3.8C152.633 3.8 154.298 5.255 154.298 7.535V7.655H153.158V7.535C153.158 5.765 152.213 4.835 150.113 4.835C147.758 4.835 146.723 6.185 146.723 8.975C146.723 11.765 147.758 13.115 150.113 13.115C152.213 13.115 153.158 12.185 153.158 10.415V10.295H154.298V10.415C154.298 12.695 152.633 14.15 150.173 14.15ZM159.794 14H158.729V3.95H159.794V14ZM171.482 14H164.717V3.95H171.482V4.925H165.782V8.45H171.257V9.44H165.782V13.025H171.482V14ZM179.583 14.15C176.793 14.15 175.578 12.68 175.578 10.955V10.73H176.643V10.895C176.643 12.29 177.378 13.16 179.613 13.16C181.278 13.16 182.058 12.605 182.058 11.45C182.058 10.325 181.548 9.905 180.033 9.575L178.293 9.185C176.718 8.855 175.638 8.135 175.638 6.515C175.638 5.06 176.838 3.8 179.223 3.8C181.833 3.8 182.973 5.39 182.973 7.025V7.22H181.908V7.055C181.908 5.675 181.188 4.79 179.208 4.79C177.543 4.79 176.718 5.345 176.718 6.44C176.718 7.58 177.273 7.91 178.743 8.255L180.483 8.66C182.148 9.035 183.138 9.815 183.138 11.39C183.138 12.92 181.953 14.15 179.583 14.15Z" fill="white"/>
<defs>
<clipPath id="clip0_0_113">
<rect width="49" height="49" fill="white" transform="translate(0 61)"/>
</clipPath>
<clipPath id="clip1_0_113">
<rect width="49" height="49" fill="white" transform="translate(76 61)"/>
</clipPath>
<clipPath id="clip2_0_113">
<rect width="49" height="49" fill="white" transform="translate(152 61)"/>
</clipPath>
<clipPath id="clip3_0_113">
<rect width="49" height="49" fill="white" transform="translate(228 61)"/>
</clipPath>
</defs>
</svg>
