<svg width="661" height="984" viewBox="0 0 661 984" fill="none" xmlns="http://www.w3.org/2000/svg">
<path opacity="0.2" fill-rule="evenodd" clip-rule="evenodd" d="M887.064 169.11C838.989 101.821 772.49 49.8617 695.573 19.4866C618.656 -10.8886 534.599 -18.3848 453.52 -2.09976C372.442 14.1853 297.798 53.5575 238.575 111.277C179.352 168.997 138.075 242.604 119.711 323.237C101.347 403.87 106.68 488.092 135.068 565.764C163.456 643.437 213.689 711.249 279.719 761.038C345.75 810.826 424.763 840.468 507.248 846.396C589.733 852.324 672.174 834.285 744.645 794.451L696.925 707.633C641.189 738.269 577.787 752.142 514.35 747.583C450.913 743.024 390.146 720.227 339.363 681.936C288.581 643.645 249.948 591.493 228.116 531.757C206.284 472.021 202.182 407.248 216.305 345.236C230.428 283.223 262.174 226.614 307.721 182.223C353.267 137.833 410.674 107.553 473.029 95.0283C535.384 82.5039 600.03 88.2691 659.185 111.63C718.34 134.99 769.482 174.951 806.455 226.701L887.064 169.11ZM0.361073 453.793C-4.14403 573.568 33.5976 691.115 106.986 785.88C180.375 880.645 284.74 946.597 401.833 972.203C518.925 997.809 641.293 981.44 747.538 925.958C853.783 870.476 937.144 779.412 983.045 668.69L895.252 632.295C857.888 722.424 790.031 796.552 703.546 841.715C617.06 886.878 517.451 900.203 422.136 879.359C326.821 858.515 241.866 804.83 182.126 727.689C122.387 650.549 91.6644 554.864 95.3317 457.365L0.361073 453.793ZM538 688.5C687.117 688.5 808 567.617 808 418.5C808 269.383 687.117 148.5 538 148.5C388.883 148.5 268 269.383 268 418.5C268 567.617 388.883 688.5 538 688.5ZM538 597.37C439.213 597.37 359.13 517.287 359.13 418.5C359.13 319.713 439.213 239.63 538 239.63C636.787 239.63 716.87 319.713 716.87 418.5C716.87 517.287 636.787 597.37 538 597.37Z" fill="url(#paint0_linear_2003_88)"/>
<defs>
<linearGradient id="paint0_linear_2003_88" x1="537.999" y1="105" x2="668.499" y2="779.5" gradientUnits="userSpaceOnUse">
<stop stop-color="#27D24E" stop-opacity="0"/>
<stop offset="0.475" stop-color="#17B4FA"/>
<stop offset="1" stop-color="#FF03F4" stop-opacity="0.6"/>
</linearGradient>
</defs>
</svg>
